<svg width="260" height="263" fill="none" xmlns="http://www.w3.org/2000/svg"><path d="M50.02.46A48.74 48.74 0 0 0 17.98 20.3c-5.39 7.65-8.28 16.33-8.69 26.2-.5 11.25 1.83 19.31 8.43 29.84.66.98.4 1.39-2.33 4.93-6.25 7.96-8.08 15.05-5.8 22.45.62 1.95 5.19 10.33 12.25 22.4l11.22 19.26.76 5.19c1.78 12.84 4.72 22.03 12.14 37.7 2.33 4.93 3.65 7.2 5.23 8.58 3.5 3.18 4.92 3.75 9.75 3.75 3.86 0 4.62-.16 7-1.5 3.46-1.94 5.64-4.77 7.01-8.98 1.07-3.34 1.12-3.39 5.08-5.8 2.18-1.34 4.27-2.42 4.52-2.42.3-.05 7.77 12.38 16.6 27.53 15.95 27.28 16.1 27.59 15.19 28.67-2.18 2.36-2.84 4.47-2.84 8.99 0 3.85.15 4.67 1.47 7.03 3.25 5.91 7.36 8.58 13.25 8.58 4.22 0 3.86.16 19.3-9.09 11.73-6.99 13.1-7.96 14.27-10.22 1.37-2.67.91-4.98-1.98-9.97-1.47-2.51-8.18-13.92-14.93-25.37-6.7-11.46-12.6-21.58-13.05-22.55-1.02-2-.76-3.86.81-5.6 1.52-1.6 4.88-1.6 6.45.1.6.67 7.26 11.71 14.78 24.5 17.52 30 16.86 28.92 19.1 30 3.44 1.64 4.97 1.08 18.63-7.14 6.9-4.16 13.35-8.27 14.37-9.14 4.47-3.96 5.79-10.9 3.1-16.44-3.25-6.73-7.77-9.81-14.12-9.6l-3.55.1-15.75-26.87c-8.68-14.74-15.9-27.12-16-27.48-.15-.36 1.38-1.6 3.81-3.08l4.12-2.41 2.23.87c2.9 1.13 8.38.87 11.22-.52a14.45 14.45 0 0 0 8.03-13.1c.05-4.57-.97-6.57-7.92-16.12-9.75-13.2-16.25-19.93-27.32-28.05-4.52-3.29-4.57-3.4-8.84-10.79l-4.32-7.45 2.7-.4c3.65-.57 6.8-1.44 13.05-3.7 11.12-4.06 15.53-3.09 25.34 5.29 7.41 6.37 13.91 7.5 21.43 3.64 5.63-2.82 9.24-7.09 14.88-17.56 2.43-4.42 4.46-6.84 7.1-8.17 1.73-.93 3.15-1.08 8.9-1.23 6.24-.16 7-.26 9.64-1.6 1.68-.87 3.3-2.15 4.01-3.18 1.32-2.06 1.32-2.16.46-3.4-.92-1.17-3.2-.71-3.66.78-.6 2-3.1 2.77-10.66 3.13-3.91.2-7.92.67-8.89 1.03-4.47 1.6-7.56 5.08-12.39 13.97-5.13 9.45-11.07 14.23-17.62 14.23-3.6 0-6.1-1.28-12.7-6.63-5.89-4.83-9.14-6.26-14.93-6.57-4.51-.26-7.46.4-16.25 3.65-3.96 1.43-5.84 1.84-8.53 1.84-1.93 0-3.86-.2-4.36-.46-.46-.3-3.05-4.16-5.7-8.63-7.2-12.22-11.37-15.92-19.44-17.2-3.2-.52-4.47-.47-8.28.3-3 .62-4.52.72-4.62.36-.4-1.28-5.18-8.22-7.26-10.53C87.14 9.66 77.8 4.01 69.1 1.7 63.83.3 54.64-.26 50.02.46Zm11.73 4.16c5.64.72 9.5 1.8 13.76 3.86 4.88 2.3 7.82 4.36 12.04 8.42a44.75 44.75 0 0 1 12.03 20.85c1.17 4.47 1.53 12.7.81 17.88l-.4 2.93-6.7 6.11C77.95 78.7 71.8 82.44 54.74 88.3l-8.99 3.08-2.79-.97C29.1 85.63 18.54 74.12 14.62 59.69c-1.52-5.7-1.52-16.64.06-22.45C19.3 19.98 33.62 7.14 51.04 4.67c4.36-.61 6.09-.61 10.71-.05Zm52.3 25.9c6.25 1.69 8.43 4.15 18.08 20.59l9.14 15.51.97 1.6-5.18-2.26c-10.31-4.63-23.06-7.86-30.88-7.92-2.03 0-2.18-.1-1.88-1.18.16-.61.46-3.44.61-6.26.3-5.4-.55-12.28-2.08-16.75-.86-2.52-.66-2.82 2.29-3.34.96-.15 2.03-.36 2.28-.46 1.17-.41 4.22-.2 6.66.46Zm-6.24 31.94c1.83.31 1.88.41 1.88 2.52 0 2.98 1.67 9.35 3.35 12.69 2.69 5.44 7.41 10.42 13.2 14.12 2.14 1.34 4.17 4.73 31.59 51.47 16.1 27.54 29.35 50.3 29.45 50.65.1.36-4.01 3.13-9.14 6.16-9.55 5.7-11.83 7.6-13.35 11.1l-.92 2-4.01-6.72c-2.18-3.7-3.96-6.84-3.96-7.04 0-.2 3.7-2.57 8.28-5.3 6.95-4.15 8.22-5.13 8.38-6.26.1-.87-.16-1.49-.82-1.85-1.12-.62-1.22-.56-11.27 5.5-4.57 2.72-6.96 3.9-7.21 3.49-.2-.3-1.37-2.31-2.6-4.42l-2.23-3.85 4.52-2.72c4.68-2.88 5.49-3.75 4.62-5.2-.91-1.48-2.18-1.17-6.65 1.5-4.16 2.52-4.42 2.62-5.08 1.7-4.57-6.68-5.74-7.6-9.7-7.6-5.33 0-8.93 3.74-8.78 9.13.05 2.11.6 3.45 3.86 9.1 2.13 3.6 3.86 6.78 3.86 7.03 0 .26-3.66 2.62-8.18 5.3-4.47 2.67-8.38 5.29-8.68 5.8-.36.72-.25 1.23.4 1.95.46.51 1.12.98 1.43.98.3 0 2.38-1.13 4.62-2.47 2.23-1.38 6.04-3.65 8.48-5.13l4.42-2.63 5.13 8.74c2.79 4.78 5.23 9.04 5.38 9.45.25.56-.05.67-1.53.41-3.2-.51-6.45.82-16.2 6.63-5.22 3.13-9.64 5.6-9.74 5.5-1.12-1.19-60.18-102.95-60.18-103.72 0-2.98-1.83-9.5-3.86-13.71a29.95 29.95 0 0 0-11.02-12.69l-2.9-1.9 1.28-2.42a32.68 32.68 0 0 1 1.93-3.33c.4-.47 4.82-2.26 9.8-4.01 17.77-6.06 24.78-10.27 40.06-24.2 7.11-6.52 7.21-6.52 12.09-5.75Zm10.87 1.75c5.68 1.33 12.34 3.54 12.34 4.1 0 .27-.92 2.17-2.09 4.32-2.08 3.9-2.23 5.55-.7 6.17 1.42.51 2.28-.36 4.61-4.63 1.27-2.36 2.5-4.31 2.7-4.31.2 0 .76.3 1.27.67.9.66.86.82-.46 2.82-1.42 2.21-1.42 3.85.05 4.42 1.22.46 2.59-.51 3.8-2.77.67-1.13 1.33-2.06 1.48-2.06.66 0 8.48 4.98 12.34 7.86 2.13 1.6 6.45 5.45 9.55 8.48 5.48 5.34 12.28 13.3 12.03 14.07-.1.2-3.86 3.03-8.43 6.32l-8.27 5.96-4.68-5.04c-9.75-10.63-19.14-19-24.02-21.52-8.02-4.1-14.16-11.87-15.9-20.14-.55-2.77-.75-5.75-.3-5.75.1 0 2.24.46 4.68 1.03ZM23.4 83c3.76 4 9.7 7.91 15.84 10.48 1.38.56 2.4 1.18 2.29 1.44-4.47 8.83-7.77 22.44-8.38 34.16-.15 3.34-.46 6.16-.66 6.26-.15.1-4.47-6.93-9.55-15.61-10.36-17.67-10.91-19.06-9.85-24.71.3-1.7 1.17-4.42 1.98-5.96 1.32-2.67 5.44-7.91 6.2-7.91.2 0 1.17.82 2.13 1.85Zm128.17 30.97c2.9 3.3 6.9 8.17 8.84 10.8 4.01 5.38 4.06 4.72-.61 7.49-1.42.82-2.64 1.23-2.9.98-.35-.41-4.21-6.94-17.36-29.44l-2.5-4.31 4.58 4.26c2.54 2.36 7 6.94 9.95 10.22Zm-103.34-2.15c4.83 5.18 7.26 11.5 7.87 20.44.71 9.66 2.44 17.67 6.86 31.03 1.42 4.31 2.49 7.96 2.33 8.11-.15.16-4.31 2.31-9.34 4.78l-9.09 4.52-1.42-3.44a119.12 119.12 0 0 1-7.16-24.4c-.36-2.21-.56-4.27-.4-4.47.15-.26 1.21-.46 2.38-.51 3.45-.05 7-.77 7.52-1.54.25-.42.4-4.06.4-8.17-.05-4.11.1-9.3.3-11.61.51-5.55.2-5.86-5.94-5.86h-4.57l.36-1.7c.15-.87.91-4.1 1.62-7.13l1.33-5.55 2.03 1.18c1.11.62 3.35 2.57 4.92 4.32Zm132.6-1.75c1.31 1.8 2.73 4 3.24 4.98 1.02 1.95 1.17 5.76.3 8.32-.65 2.06-3.75 5.24-5.78 6.01-3.35 1.29-8.03.42-10.72-1.95-1.32-1.13-6.55-8.32-6.24-8.58.5-.51 16.35-11.97 16.6-11.97.16 0 1.32 1.44 2.6 3.19Zm-136.97 24.1c-.2 4.87-.4 8.98-.55 9.08-.1.16-1.53.36-3.2.47l-3.05.2v-7.34c0-4.06.15-8.28.3-9.35l.36-1.9h6.5l-.35 8.83Zm27.99 25.06c5.53 9.45 10.15 17.51 10.25 17.98.16.51-.86 1.44-3.1 2.72a26.95 26.95 0 0 1-3.65 1.95c-.2 0-1.12-1.8-2.08-4-.92-2.21-2.14-4.94-2.7-6.07-1.82-3.85-5.12-13.81-7.15-21.57-1.88-7.3-2.24-8.94-1.78-8.43l10.2 17.42Zm-.66 27.12a9.7 9.7 0 0 1-5.64 8.94c-3.4 1.74-5.59 1.8-9.04.2-2.9-1.38-4.32-3.18-6.5-8.16l-1.27-2.98 9.24-4.58 9.3-4.52 1.98 4.17c1.57 3.28 1.93 4.72 1.93 6.93Zm127.96 10.58c4.07 1.75 7.32 7.45 6.91 12.12-.46 4.73-1.42 5.6-16.1 14.34-10.76 6.42-13.5 7.8-14.52 7.55-1.93-.52-7.11-9-7.67-12.7a9.95 9.95 0 0 1 2.49-7.9c1.63-1.6 17.42-11.35 21.38-13.15a9.36 9.36 0 0 1 7.51-.26Zm-49.35 30.36c1.77.92 3.04 2.46 6.04 7.3 2.74 4.51 3.2 6.67 1.72 7.96-.5.4-6.44 4.05-13.25 8.11-12.64 7.55-14.83 8.48-18.23 7.66-5.03-1.13-9.4-7.76-8.58-13.05.66-4 1.98-5.24 13.05-11.92 5.69-3.39 11.17-6.47 12.13-6.73 2.04-.61 5.24-.3 7.12.67Z" fill="#000"/><path d="M49.05 12.64a34.08 34.08 0 0 0-18.38 10.63c-5.79 6.21-8.78 13.46-9.19 22.19-.3 6.73.66 11.4 3.7 17.67 3.97 8.12 11.64 14.9 20.02 17.57l3.3 1.08 5.33-1.8A84.97 84.97 0 0 0 74.9 69.6c6.5-4.41 14.32-11.55 15.29-13.97.4-.92.86-3.7 1.01-6.21a34.72 34.72 0 0 0-9.9-26.82c-6.85-6.83-14.27-10.17-23.66-10.58-3.46-.1-6.2.05-8.59.62Zm16.97 5.13a29.2 29.2 0 0 1 12.84 8.43 31.02 31.02 0 0 1 8.23 23.63l-.36 3.8-3.4 3.54C77.03 63.8 67.9 69.86 58.4 73.81c-7.67 3.14-9.9 3.6-13.1 2.52-7.87-2.67-15.75-11.14-18.44-19.83-5.58-18.23 6.4-37.34 25.2-40.27 3.24-.46 10.2.31 13.96 1.54Z" fill="#000"/><path d="M61.55 24.76c-1.17 1.18-.61 2.26 3 5.8 5.48 5.5 9.6 12.43 9.6 16.24 0 1.74.96 3.03 2.28 3.03 1.72 0 2.18-1.19 1.72-4.22-.91-5.65-6.8-15-12.34-19.57-2.38-2-3.3-2.26-4.26-1.28ZM86.33 84.76c-5.69 4.2-11.94 7.6-17.52 9.5-2.24.77-4.27 1.6-4.52 1.8-.25.25-.3 1.02-.1 1.74.25 1.13.6 1.34 2.08 1.34 4.37 0 15.23-5.34 23.51-11.5 3.81-2.83 4.22-3.3 4.06-4.68-.25-2.67-2.03-2.26-7.51 1.8ZM102.58 91.69c-2.8 1.03-28.95 16.9-31.33 18.95-4.52 3.96-5.7 10.28-2.9 15.78 1.63 3.28 12.44 21.83 14.53 24.96 1.77 2.67 4.87 4.57 8.68 5.34 2.39.52 3.25.46 5.43-.25 4.12-1.4 31.39-17.93 33.62-20.4 3.05-3.39 4.21-8.73 2.74-12.84-.76-2.2-14.12-25.17-16.15-27.79-2.13-2.77-5.99-4.52-9.75-4.47-1.72 0-3.9.31-4.87.72Zm8.53 4.06c.76.4 1.98 1.39 2.7 2.2 2.07 2.27 15.63 25.8 15.99 27.8.45 2.41-.56 5.5-2.5 7.6-1.36 1.44-23.2 15-29.4 18.24-3.45 1.8-8.53 1.02-10.86-1.65-1.17-1.34-5.74-8.94-5.94-9.81-.05-.3 3.55-2.77 8.02-5.5 7.62-4.62 8.13-5.03 8.13-6.47 0-2.77-1.68-2.31-10.1 2.78-4.22 2.56-7.98 4.67-8.29 4.67-.56 0-4.72-6.73-4.72-7.6 0-.26 5.54-3.8 12.34-7.81a481.5 481.5 0 0 0 13.96-8.58c1.83-1.39 2.09-2.93.62-3.75-1.22-.67 0-1.28-16.15 8.37-14.07 8.43-13.82 8.38-13.82 3.96 0-4.78.92-5.6 15.24-14.28 7.1-4.32 14.22-8.53 15.74-9.35 3.15-1.7 6.8-2 9.04-.82Z" fill="#000"/><path d="M112.84 120.56c-1.88.92-3.66 3.95-3.66 6.16 0 3.7 3.6 6.63 7.57 6.17 6.34-.72 7.82-9.25 2.08-12.18-2.39-1.23-3.76-1.28-6-.15Zm4.57 4.1c1.16 1.09 1.16 2.32-.05 3.45-1.33 1.23-2.64.87-3.61-.87-.71-1.39-.71-1.5.46-2.47 1.42-1.18 1.98-1.23 3.2-.1ZM237.86 102.58c-2.84 4.67-3.45 5.4-6.04 6.88-4.67 2.68-4.67 4.06-.05 6.32 2.69 1.34 5.89 4.78 5.89 6.32 0 .92 2.23 2.31 3.2 1.9.4-.15 1.26-1.28 1.82-2.52a15.24 15.24 0 0 1 6.4-6.57c2.95-1.7 2.8-3.29-.35-4.98-3.25-1.8-4.83-3.4-6.3-6.32-1.47-2.93-3.2-3.29-4.57-1.03Zm4.21 12.23-2.23 2.26-2.18-2.26-2.19-2.26 2.19-2.21 2.23-2.26 2.18 2.26 2.24 2.2-2.24 2.27ZM221.1 131.4c-.3.2-1.32 1.95-2.23 3.95A22.71 22.71 0 0 1 208.4 146c-5.64 2.77-5.7 4-.1 6.72 4.67 2.32 8.02 5.7 10.5 10.69 1.68 3.34 2.09 3.8 3.36 3.8 1.47 0 1.52-.05 3.4-4.06 1.88-4.1 6.04-8.27 10.41-10.37 5.69-2.78 5.64-3.9-.4-6.94a22.72 22.72 0 0 1-10.11-10.32c-2.03-4.37-2.84-5.14-4.37-4.11Zm8.43 15.72 3.05 2.3-1.63 1.14c-2.64 1.8-5.99 5.13-7.41 7.4l-1.27 2.05-1.07-1.54c-1.98-2.78-5.07-6.01-7.3-7.55l-2.2-1.54 2.75-1.96c2.64-1.95 5.69-5.24 6.9-7.6.62-1.13.67-1.08 2.9 1.95 1.22 1.7 3.6 4.11 5.28 5.35ZM29.6 222.83c-.35.2-.96 1.23-1.37 2.26-.91 2.16-3.96 5.34-5.58 5.86-3.05.92-3.7 3.39-1.27 4.72 3.5 1.96 5.43 3.7 6.5 5.91 2.13 4.42 3.4 4.42 5.64.1 1.16-2.36 3.04-4.06 6.55-6 .91-.52 1.57-1.3 1.57-1.9 0-1.03-2.18-3.14-3.25-3.14-.96 0-3.86-3.08-4.98-5.34-1.37-2.78-2.33-3.4-3.8-2.47Zm3.2 12.9-1.98 2.05-1.98-2.06-1.98-2.05 1.93-2 1.93-2 2.03 2 1.98 2.05-1.93 2Z" fill="#000"/></svg>