<svg width="32" height="32" fill="none" xmlns="http://www.w3.org/2000/svg"><path fill-rule="evenodd" clip-rule="evenodd" d="m7.19 13.5 7.57-7.58.95.95-7.58 7.57-.94-.94ZM9.7 16.01l7.58-7.57.94.94-7.58 7.58L9.7 16ZM15.04 21.36l7.58-7.58.94.94L16 22.3l-.95-.94ZM17.56 23.87l7.57-7.58.95.95-7.58 7.57-.94-.94Z" fill="#3369F3"/><path fill-rule="evenodd" clip-rule="evenodd" d="M17.56 23.87a6.68 6.68 0 0 1-9.45.02 6.68 6.68 0 0 1 .02-9.45l-.94-.94a8.02 8.02 0 0 0-.03 11.34 8.02 8.02 0 0 0 11.34-.03l-.94-.94ZM22.62 13.78l.94.94a6.24 6.24 0 0 0 .02-8.82 6.24 6.24 0 0 0-8.82.02l.95.95a4.9 4.9 0 1 1 6.9 6.91Z" fill="#3369F3"/><path fill-rule="evenodd" clip-rule="evenodd" d="M9.7 16.01A4.45 4.45 0 1 0 16 22.3l-.95-.94a3.12 3.12 0 1 1-4.4-4.4L9.7 16Z" fill="#3369F3"/></svg>