<svg width="201" height="224" fill="none" xmlns="http://www.w3.org/2000/svg"><g clip-path="url(#a)" fill-rule="evenodd" clip-rule="evenodd" fill="#000"><path opacity=".88" d="M200.8 126.66v6.12a22.96 22.96 0 0 1-7.26 9.63c1.77 9.04-1.44 14.3-9.62 15.75-4.15-.33-7.22-2.52-9.22-6.57a90.52 90.52 0 0 1-18.26 5.25 9.89 9.89 0 0 1-2.16 4.82c-18.94 24.3-42.7 33.55-71.25 27.78-19.13-5.07-34.11-16.67-44.95-34.78a158.56 158.56 0 0 1-33.96-8.97c-.9-2.93 0-4.1 2.75-3.5a237.12 237.12 0 0 0 55.35 10.94c8.38.65 16.75 1.23 25.13 1.75 1.38 2.95.53 4.33-2.55 4.15a665.38 665.38 0 0 1-41.03-3.28 77.22 77.22 0 0 0 11 13.13 170.84 170.84 0 0 0 73.4 3.5c4.79-.84 9.5-2 14.14-3.5 3.15-3.37 6.16-6.87 9.03-10.5-6.85.98-13.72 1.93-20.61 2.84-2.92.4-3.77-.84-2.55-3.72a271.95 271.95 0 0 0 43.18-9.19 14 14 0 0 0 2.55-1.1c.84-8.22 4.97-11.94 12.37-11.15 1.73.46 3.3 1.26 4.7 2.4 7.23-4.8 7.75-10.42 1.58-16.84a79.28 79.28 0 0 0-22.38-11.15 108.93 108.93 0 0 1-3.92 26.47l.39.65c4.15-1.7 6.77-4.91 7.85-9.62 1.13-1.14 2.24-1.14 3.34 0 .3 4.23-1.08 7.66-4.12 10.28a44.9 44.9 0 0 1-18.06 7.88 189 189 0 0 1-50.64 5.46c-26.9.57-53.33-3-79.3-10.72a58.4 58.4 0 0 1-21.6-10.5A21.8 21.8 0 0 1-.2 123.6v-6.56a20.77 20.77 0 0 1 10.21-9.84 94 94 0 0 1 17.47-5.47c4.77-30.99 20.14-52.5 46.13-64.53a65.13 65.13 0 0 1 38.08-3.5c1.14 1.47 1 2.79-.4 3.93-24.99-4.08-46.06 4.09-63.2 24.5a169.64 169.64 0 0 0 34.94 5.7c22.24 1.6 44.22-.3 65.95-5.7l-6.67-7.43a413.72 413.72 0 0 1-26.3 4.15c-2.63.51-3.29-.44-1.97-2.84 8.35-.87 16.6-2.4 24.74-4.6-.74-2.46.05-3.55 2.35-3.28 16.95 14.5 26.5 33.68 28.66 57.54 8.16 2.42 15.88 6 23.16 10.72a19.66 19.66 0 0 1 7.85 10.28ZM45.74 64.96a197.8 197.8 0 0 0 52.4 6.57c17.85.13 35.45-2.05 52.8-6.56a49.3 49.3 0 0 1 5.11 7.65 204.46 204.46 0 0 1-34.15 5.25c-26.8 2.13-53.43.6-79.9-4.59l-.98-.44c1.43-2.75 3-5.37 4.72-7.87Zm-6.29 10.95c36 7.36 72.12 8.02 108.36 1.96a206.5 206.5 0 0 0 9.22-1.96c.3.06.57.2.79.43a74.69 74.69 0 0 1 7.65 29.75 372.23 372.23 0 0 1-134.26 0l.79-6.12a153.26 153.26 0 0 0 38.66 5.69c.3-.85.23-1.66-.2-2.41a226.75 226.75 0 0 1-38.07-6.56 90.46 90.46 0 0 1 7.06-20.78ZM148.2 87.28c2.82.15 3.93 1.76 3.34 4.81-2.53 2.6-4.3 2.09-5.3-1.53.1-1.5.76-2.6 1.96-3.28ZM25.7 106.53h1.57c-.51 9.2.34 18.25 2.56 27.13.52 1.57 1.5 2.08 2.94 1.53.6-.65.85-1.45.79-2.4a93.14 93.14 0 0 1-2.36-23.63 386.4 386.4 0 0 0 121.3 2.4c4.45-.54 8.83-1.34 13.16-2.4.31 3.08.25 6.14-.2 9.18a223.38 223.38 0 0 1-19.23 3.72c-.89 2.1-.3 3.04 1.76 2.85a154.5 154.5 0 0 0 16.69-3.07 32.8 32.8 0 0 1-.98 9.63 31.46 31.46 0 0 1-2.56 8.53 208.73 208.73 0 0 1-71.45 7 225.74 225.74 0 0 1-73.02-14c-4.99-1.78-9.11-4.92-12.36-9.4-1.29-3.6-.57-6.6 2.16-8.97a27.79 27.79 0 0 1 5.5-3.5c4.53-1.86 9.11-3.4 13.73-4.6Zm156.64 33.69c4.45-.37 7.06 1.9 7.85 6.78-1.25 5.8-4.4 7.7-9.42 5.69-3.32-3.4-3.59-7.04-.78-10.94a10.1 10.1 0 0 0 2.35-1.53ZM61.83 174.34c24.6 4.67 49.2 4.67 73.8 0-22.88 15.8-46.3 16.74-70.27 2.85a13.13 13.13 0 0 1-3.53-2.85Z"/><path opacity=".86" d="M107.76 56.22c1.18-.07 1.97.51 2.36 1.75a2.25 2.25 0 0 1-1.18 1.53c-6.4.61-12.82.76-19.24.44-.6-1.02-.47-1.9.4-2.63 5.96-.12 11.85-.49 17.66-1.1Z"/><path opacity=".88" d="M16.68 65.84c6.48.03 9.16 3.53 8.05 10.5-2.58 5.06-6.18 6.15-10.8 3.28-2.38-2.83-2.97-6.11-1.76-9.84a7.62 7.62 0 0 1 4.51-3.94Zm.79 4.38c2.82.15 3.93 1.76 3.34 4.81-2.52 2.6-4.29 2.09-5.3-1.53.1-1.5.76-2.6 1.96-3.28ZM147.41 82.9c7.45.43 9.88 4.51 7.27 12.26-2.98 3.4-6.31 3.9-10.02 1.53-2.38-2.84-2.97-6.12-1.76-9.85a7.62 7.62 0 0 1 4.51-3.93Zm.79 4.38a3.84 3.84 0 0 0-1.96 3.28c1 3.62 2.77 4.13 5.3 1.53.6-3.05-.52-4.66-3.34-4.8Z"/><path opacity=".84" d="M35.53 118.34a614.8 614.8 0 0 0 18.45 3.28c.73.63.93 1.43.59 2.41-1.34.5-2.71.56-4.12.22-4.87-.73-9.7-1.6-14.53-2.63-1.41-.9-1.55-1.99-.4-3.28Z"/><path opacity=".87" d="M58.3 122.28a405.09 405.09 0 0 0 68.3 1.97c1.2 1.5.95 2.53-.78 3.06-21.9 1.28-43.75.7-65.56-1.75-2.44 0-3.1-1.1-1.96-3.28Z"/><path opacity=".88" d="M35.14 171.28c5.16.14 7.7 3.06 7.65 8.75-1.74 6.26-5.34 8.08-10.8 5.47-2.9-3.08-3.49-6.65-1.76-10.72l2.16-2.4c.98-.31 1.9-.67 2.75-1.1Zm.39 4.38c3.15.7 4 2.59 2.55 5.68-3.25 1.63-4.82.47-4.71-3.5a5.14 5.14 0 0 1 2.16-2.18Z"/></g><defs><clipPath id="a"><path fill="#fff" d="M0 0h201v224H0z"/></clipPath></defs></svg>